<svg xmlns="http://www.w3.org/2000/svg" viewBox="0 0 880 452" width="880" height="452" role="img" aria-label="Average error by how many past races a runner has" font-family="system-ui, -apple-system, 'Segoe UI', Roboto, Helvetica, Arial, sans-serif"><rect width="880" height="452" fill="#fdfdfb"/><text x="16" y="24" font-size="15" fill="#1f2328" text-anchor="start" font-weight="600">Average error by how many past races a runner has</text><text x="16" y="42" font-size="11.5" fill="#6b7280" text-anchor="start" font-weight="normal">53 races from 2024 on, each prediction made only from results dated before its race</text><rect x="16" y="58" width="10" height="10" rx="2" fill="#a8adb4"/><text x="31" y="66" font-size="11" fill="#6b7280" text-anchor="start" font-weight="normal">Last time</text><rect x="158" y="58" width="10" height="10" rx="2" fill="#8fb3cc"/><text x="173" y="66" font-size="11" fill="#6b7280" text-anchor="start" font-weight="normal">Race calculator</text><rect x="300" y="58" width="10" height="10" rx="2" fill="#cbb389"/><text x="315" y="66" font-size="11" fill="#6b7280" text-anchor="start" font-weight="normal">Your category</text><rect x="442" y="58" width="10" height="10" rx="2" fill="#5f9fae"/><text x="457" y="66" font-size="11" fill="#6b7280" text-anchor="start" font-weight="normal">Bayesian model</text><rect x="584" y="58" width="10" height="10" rx="2" fill="#9184bd"/><text x="599" y="66" font-size="11" fill="#6b7280" text-anchor="start" font-weight="normal">Boosted trees</text><rect x="726" y="58" width="10" height="10" rx="2" fill="#2f6f4f"/><text x="741" y="66" font-size="11" fill="#6b7280" text-anchor="start" font-weight="normal">Published: the average</text><line x1="56" y1="360" x2="864" y2="360" stroke="#e3e5e8" stroke-width="1"/><text x="48" y="364" font-size="11" fill="#6b7280" text-anchor="end" font-weight="normal">0</text><line x1="56" y1="296" x2="864" y2="296" stroke="#e3e5e8" stroke-width="1"/><text x="48" y="300" font-size="11" fill="#6b7280" text-anchor="end" font-weight="normal">5</text><line x1="56" y1="232" x2="864" y2="232" stroke="#e3e5e8" stroke-width="1"/><text x="48" y="236" font-size="11" fill="#6b7280" text-anchor="end" font-weight="normal">10</text><line x1="56" y1="168" x2="864" y2="168" stroke="#e3e5e8" stroke-width="1"/><text x="48" y="172" font-size="11" fill="#6b7280" text-anchor="end" font-weight="normal">15</text><line x1="56" y1="104" x2="864" y2="104" stroke="#e3e5e8" stroke-width="1"/><text x="48" y="108" font-size="11" fill="#6b7280" text-anchor="end" font-weight="normal">20</text><text x="16" y="90" font-size="11" fill="#6b7280" text-anchor="start" font-weight="normal">minutes</text><text x="157" y="382" font-size="12" fill="#1f2328" text-anchor="middle" font-weight="normal">No past races</text><text x="157" y="398" font-size="10.5" fill="#6b7280" text-anchor="middle" font-weight="normal">5,711 runners</text><text x="86.3" y="354" font-size="10" fill="#6b7280" text-anchor="middle" font-weight="normal">n/a</text><text x="114.6" y="354" font-size="10" fill="#6b7280" text-anchor="middle" font-weight="normal">n/a</text><rect x="130.2" y="124.4" width="25.3" height="235.6" rx="2" fill="#cbb389"/><line x1="142.9" y1="130.8" x2="142.9" y2="118.1" stroke="#1f2328" stroke-width="1"/><rect x="158.5" y="125.6" width="25.3" height="234.4" rx="2" fill="#5f9fae"/><line x1="171.1" y1="131.4" x2="171.1" y2="119.5" stroke="#1f2328" stroke-width="1"/><rect x="186.8" y="121.4" width="25.3" height="238.6" rx="2" fill="#9184bd"/><line x1="199.4" y1="127.9" x2="199.4" y2="115.1" stroke="#1f2328" stroke-width="1"/><rect x="215.1" y="128.2" width="25.3" height="231.8" rx="2" fill="#2f6f4f"/><line x1="227.7" y1="134.1" x2="227.7" y2="122" stroke="#1f2328" stroke-width="1"/><text x="227.7" y="122.2" font-size="11" fill="#1f2328" text-anchor="middle" font-weight="600">18.1</text><line x1="258" y1="98" x2="258" y2="386" stroke="#e3e5e8" stroke-width="1" stroke-dasharray="3 3"/><text x="359" y="382" font-size="12" fill="#1f2328" text-anchor="middle" font-weight="normal">One past race</text><text x="359" y="398" font-size="10.5" fill="#6b7280" text-anchor="middle" font-weight="normal">2,713 runners</text><rect x="275.7" y="237" width="25.3" height="123" rx="2" fill="#a8adb4"/><line x1="288.3" y1="242.5" x2="288.3" y2="231.5" stroke="#1f2328" stroke-width="1"/><rect x="303.9" y="263.4" width="25.3" height="96.6" rx="2" fill="#8fb3cc"/><line x1="316.6" y1="268.6" x2="316.6" y2="258.1" stroke="#1f2328" stroke-width="1"/><rect x="332.2" y="153.9" width="25.3" height="206.1" rx="2" fill="#cbb389"/><line x1="344.9" y1="161.6" x2="344.9" y2="145.9" stroke="#1f2328" stroke-width="1"/><rect x="360.5" y="239.2" width="25.3" height="120.8" rx="2" fill="#5f9fae"/><line x1="373.1" y1="244.7" x2="373.1" y2="233.8" stroke="#1f2328" stroke-width="1"/><rect x="388.8" y="247.1" width="25.3" height="112.9" rx="2" fill="#9184bd"/><line x1="401.4" y1="252.2" x2="401.4" y2="242" stroke="#1f2328" stroke-width="1"/><rect x="417.1" y="248.5" width="25.3" height="111.5" rx="2" fill="#2f6f4f"/><line x1="429.7" y1="253.8" x2="429.7" y2="243.1" stroke="#1f2328" stroke-width="1"/><text x="429.7" y="242.5" font-size="11" fill="#1f2328" text-anchor="middle" font-weight="600">8.7</text><line x1="460" y1="98" x2="460" y2="386" stroke="#e3e5e8" stroke-width="1" stroke-dasharray="3 3"/><text x="561" y="382" font-size="12" fill="#1f2328" text-anchor="middle" font-weight="normal">Two or three</text><text x="561" y="398" font-size="10.5" fill="#6b7280" text-anchor="middle" font-weight="normal">2,910 runners</text><rect x="477.7" y="241" width="25.3" height="119" rx="2" fill="#a8adb4"/><line x1="490.3" y1="246.3" x2="490.3" y2="235.7" stroke="#1f2328" stroke-width="1"/><rect x="505.9" y="260.4" width="25.3" height="99.6" rx="2" fill="#8fb3cc"/><line x1="518.6" y1="265.4" x2="518.6" y2="255.2" stroke="#1f2328" stroke-width="1"/><rect x="534.2" y="157.4" width="25.3" height="202.6" rx="2" fill="#cbb389"/><line x1="546.9" y1="165.1" x2="546.9" y2="149.6" stroke="#1f2328" stroke-width="1"/><rect x="562.5" y="250.8" width="25.3" height="109.2" rx="2" fill="#5f9fae"/><line x1="575.1" y1="255.4" x2="575.1" y2="245.6" stroke="#1f2328" stroke-width="1"/><rect x="590.8" y="261.3" width="25.3" height="98.7" rx="2" fill="#9184bd"/><line x1="603.4" y1="265.8" x2="603.4" y2="256.8" stroke="#1f2328" stroke-width="1"/><rect x="619.1" y="261.2" width="25.3" height="98.8" rx="2" fill="#2f6f4f"/><line x1="631.7" y1="265.7" x2="631.7" y2="256.6" stroke="#1f2328" stroke-width="1"/><text x="631.7" y="255.2" font-size="11" fill="#1f2328" text-anchor="middle" font-weight="600">7.7</text><line x1="662" y1="98" x2="662" y2="386" stroke="#e3e5e8" stroke-width="1" stroke-dasharray="3 3"/><text x="763" y="382" font-size="12" fill="#1f2328" text-anchor="middle" font-weight="normal">Four or more</text><text x="763" y="398" font-size="10.5" fill="#6b7280" text-anchor="middle" font-weight="normal">7,490 runners</text><rect x="679.7" y="265.5" width="25.3" height="94.5" rx="2" fill="#a8adb4"/><line x1="692.3" y1="268.4" x2="692.3" y2="262.7" stroke="#1f2328" stroke-width="1"/><rect x="707.9" y="267.8" width="25.3" height="92.2" rx="2" fill="#8fb3cc"/><line x1="720.6" y1="270.9" x2="720.6" y2="264.8" stroke="#1f2328" stroke-width="1"/><rect x="736.2" y="180.3" width="25.3" height="179.7" rx="2" fill="#cbb389"/><line x1="748.9" y1="184.5" x2="748.9" y2="176.1" stroke="#1f2328" stroke-width="1"/><rect x="764.5" y="290.9" width="25.3" height="69.1" rx="2" fill="#5f9fae"/><line x1="777.1" y1="293.1" x2="777.1" y2="288.4" stroke="#1f2328" stroke-width="1"/><rect x="792.8" y="294" width="25.3" height="66" rx="2" fill="#9184bd"/><line x1="805.4" y1="296" x2="805.4" y2="291.9" stroke="#1f2328" stroke-width="1"/><rect x="821.1" y="296" width="25.3" height="64" rx="2" fill="#2f6f4f"/><line x1="833.7" y1="298" x2="833.7" y2="294" stroke="#1f2328" stroke-width="1"/><text x="833.7" y="290" font-size="11" fill="#1f2328" text-anchor="middle" font-weight="600">5.0</text><text x="16" y="426.4" font-size="10.5" fill="#6b7280" text-anchor="start" font-weight="normal">Bars are the mean absolute error and the line through each is its 95% interval.</text><text x="16" y="440" font-size="10.5" fill="#6b7280" text-anchor="start" font-weight="normal">n/a is a method with nothing at all to say about that runner.</text></svg>
